<svg xmlns="http://www.w3.org/2000/svg" viewBox="-4 -10 52 52">
  <defs>
    <linearGradient id="tile" x1="0" y1="0" x2="1" y2="1">
      <stop offset="0%" stop-color="#fbbf24"/>
      <stop offset="100%" stop-color="#f97316"/>
    </linearGradient>
  </defs>

  <rect x="0" y="0" width="36" height="36" rx="12" fill="url(#tile)"/>
  <g transform="translate(8 8) scale(0.8333)" fill="none" stroke="#ffffff"
     stroke-width="2" stroke-linecap="round" stroke-linejoin="round">
    <circle cx="12" cy="12" r="10"/>
    <path d="M14.31 8l5.74 9.94M9.69 8h11.48M7.38 12l5.74-9.94M9.69 16L3.95 6.06M14.31 16H2.83M16.62 12l-5.74 9.94"/>
  </g>

  <g transform="translate(30 -6) scale(0.5833)">
    <path d="M12 0c.9 6.1 5 10.2 11.9 12-6.9 1.8-11 5.9-11.9 12-.9-6.1-5-10.2-11.9-12C7 10.2 11.1 6.1 12 0Z" fill="#fbbf24"/>
  </g>
</svg>